<svg id="Capa_1" enable-background="new 0 0 512 512" height="512" viewBox="0 0 512 512" width="512" xmlns="http://www.w3.org/2000/svg"><g><path d="m248.732 280.666h-14.654c-9.522 0-17.27 7.747-17.27 17.27v11.647c0 1.251-1.019 2.27-2.27 2.27h-11.646c-9.523 0-17.27 7.747-17.27 17.27v14.654c0 9.523 7.747 17.27 17.27 17.27h11.646c1.251 0 2.27 1.019 2.27 2.27v11.646c0 9.522 7.747 17.27 17.27 17.27h14.654c9.522 0 17.27-7.747 17.27-17.27v-11.646c0-1.251 1.019-2.27 2.27-2.27h11.647c9.522 0 17.27-7.747 17.27-17.27v-14.654c0-9.522-7.747-17.27-17.27-17.27h-11.647c-1.251 0-2.27-1.019-2.27-2.27v-11.647c-.001-9.523-7.748-17.27-17.27-17.27zm19.539 46.186h11.647c1.251 0 2.27 1.018 2.27 2.27v14.654c0 1.251-1.018 2.27-2.27 2.27h-11.647c-9.522 0-17.269 7.747-17.269 17.27v11.646c0 1.251-1.019 2.27-2.27 2.27h-14.654c-1.251 0-2.27-1.019-2.27-2.27v-11.646c0-9.523-7.747-17.27-17.27-17.27h-11.646c-1.251 0-2.27-1.018-2.27-2.27v-14.654c0-1.251 1.018-2.27 2.27-2.27h11.646c9.522 0 17.27-7.747 17.27-17.27v-11.647c0-1.251 1.019-2.27 2.27-2.27h14.654c1.251 0 2.27 1.019 2.27 2.27v11.647c-.001 9.522 7.746 17.27 17.269 17.27z"/><path d="m394.01 187.553c-.021-.048-.043-.096-.064-.144l-23.916-51.979c-1.629-3.809-5.326-6.266-9.486-6.28-.013-.001-.025-.001-.038-.001-4.143 0-7.839 2.427-9.49 6.21l-14.119 30.085c-3.65-1.626-7.475-2.829-11.399-3.587v-31.55c0-12.406-10.094-22.5-22.5-22.5h-28.355v-48.346h90.971c9.649 0 17.5-7.85 17.5-17.5v-1.812c-.001-22.138-18.011-40.149-40.15-40.149h-36.934c-4.143 0-7.5 3.357-7.5 7.5s3.357 7.5 7.5 7.5h36.934c13.867 0 25.149 11.282 25.149 25.149v1.812c0 1.379-1.121 2.5-2.5 2.5h-173.673c-1.379 0-2.5-1.121-2.5-2.5v-24.461c0-1.379 1.121-2.5 2.5-2.5h81.404c4.143 0 7.5-3.357 7.5-7.5s-3.357-7.5-7.5-7.5h-81.404c-9.649 0-17.5 7.851-17.5 17.5v24.461c0 9.65 7.851 17.5 17.5 17.5h16.227v48.345h-28.354c-12.406 0-22.5 10.094-22.5 22.5v31.554c-24.192 4.675-42.523 26.001-42.523 51.537v82.04c0 4.143 3.357 7.5 7.5 7.5s7.5-3.357 7.5-7.5v-37.678h223.232v157.379h-223.234v-87.015c0-4.142-3.357-7.5-7.5-7.5s-7.5 3.358-7.5 7.5v151.377c0 17.921 14.579 32.5 32.5 32.5h188.232c17.921 0 32.5-14.579 32.5-32.5v-240.704c2.532-.495 5.028-1.261 7.448-2.314 8.986-3.908 15.855-11.179 19.342-20.473 3.458-9.212 3.174-19.318-.8-28.456zm-170.844-128.092h36.477v48.345h-36.477zm-93.378 183.298v-29.362c0-20.678 16.822-37.5 37.5-37.5h72.364c4.143 0 7.5-3.357 7.5-7.5s-3.357-7.5-7.5-7.5h-67.341v-30.591c0-4.136 3.364-7.5 7.5-7.5h123.186c4.136 0 7.5 3.364 7.5 7.5v30.591h-38.158c-4.143 0-7.5 3.357-7.5 7.5s3.357 7.5 7.5 7.5h43.182c5.187 0 10.293 1.084 14.998 3.136l-4.058 8.646c-.085.181-.163.364-.232.552-7.121 18.974 2.328 40.704 21.066 48.442 1.879.775 3.793 1.379 5.726 1.831v4.255zm205.733 254.241h-188.233c-9.649 0-17.5-7.851-17.5-17.5v-49.362h223.232v49.362c.001 9.649-7.85 17.5-17.499 17.5zm45.247-286.261c-2.048 5.456-6.055 9.714-11.282 11.987-5.23 2.274-11.08 2.304-16.469.08-11.249-4.645-16.966-17.629-12.841-29.045l20.29-43.232 19.817 43.072c2.385 5.531 2.557 11.614.485 17.138z"/></g></svg>