<svg id="Capa_1" enable-background="new 0 0 512 512" height="512" viewBox="0 0 512 512" width="512" xmlns="http://www.w3.org/2000/svg"><g><path d="m471.783 81.649c-18.037 0-33.98 12.144-38.771 29.532l-21.161 76.789-47.706-7.415c-4.092-.631-7.926 2.167-8.563 6.259-.636 4.093 2.167 7.927 6.259 8.563l67.778 10.534c17.193 2.672 29.671 17.24 29.671 34.639v113.596c0 17.399-12.479 31.967-29.672 34.639l-65.852 10.235c-4.093.636-6.896 4.47-6.259 8.563.576 3.703 3.768 6.349 7.402 6.349.383 0 .771-.029 1.161-.09l65.853-10.235c21.923-3.407 38.466-20.363 41.758-41.644.083-.097.173-.186.252-.288 6.78-8.767 14.497-18.683 21.08-27.127 10.954-14.05 16.987-31.602 16.987-49.423v-163.26c0-22.175-18.041-40.216-40.217-40.216zm25.217 203.476c0 14.495-4.907 28.772-13.818 40.201-2.81 3.605-5.829 7.481-8.891 11.418v-96.193c0-24.844-17.818-45.645-42.368-49.461l-5.152-.801 20.702-75.123c3.004-10.902 13.001-18.517 24.311-18.517 13.904 0 25.216 11.312 25.216 25.216z"/><path d="m331.456 404.043-70.073 10.891c-3.556.553-7.211.553-10.767 0l-168.236-26.148c-17.193-2.672-29.671-17.24-29.671-34.639v-113.596c0-17.399 12.479-31.967 29.672-34.639l168.235-26.148c3.572-.555 7.195-.556 10.768 0l67.804 10.539c4.097.635 7.927-2.166 8.563-6.259s-2.167-7.927-6.259-8.563l-67.805-10.539c-5.101-.792-10.273-.792-15.374 0l-148.164 23.028-21.161-76.789c-4.791-17.389-20.734-29.533-38.771-29.533-22.176.001-40.217 18.042-40.217 40.218v163.26c0 17.82 6.033 35.372 16.988 49.424 6.363 8.162 13.785 17.699 20.398 26.244.274.354.58.666.9.957 3.214 21.381 19.795 38.44 41.791 41.858l168.236 26.148c2.538.395 5.124.594 7.688.594 2.563 0 5.149-.2 7.687-.594l70.073-10.891c4.093-.636 6.896-4.47 6.259-8.563s-4.469-6.892-8.564-6.26zm-293.747-163.492v96.193c-3.062-3.937-6.081-7.813-8.891-11.418-8.911-11.429-13.818-25.705-13.818-40.201v-163.26c0-13.904 11.312-25.216 25.217-25.216 11.309 0 21.306 7.615 24.31 18.518l20.702 75.123-5.151.801c-24.551 3.815-42.369 24.616-42.369 49.46z"/><path d="m253.695 199.572-168.236 26.148c-7.362 1.143-12.706 7.38-12.706 14.831v113.596c0 7.451 5.343 13.688 12.704 14.831l168.235 26.148c.766.119 1.537.179 2.307.179.771 0 1.54-.06 2.304-.178l168.236-26.148c7.362-1.143 12.705-7.38 12.705-14.831v-113.597c0-7.451-5.343-13.688-12.704-14.831l-168.235-26.147c-1.522-.238-3.094-.237-4.61-.001zm2.303 180.733-168.244-26.158.002-27.403h79.37c4.142 0 7.5-3.358 7.5-7.5s-3.358-7.5-7.5-7.5h-79.369l.002-32.993h336.484l-.002 32.993h-224.429c-4.142 0-7.5 3.358-7.5 7.5s3.358 7.5 7.5 7.5h224.428l-.002 27.412zm168.246-116.554h-336.484l.002-23.208 168.239-26.148 168.245 26.157z"/></g></svg>