<?xml version="1.0" encoding="iso-8859-1"?>
<!-- Generator: Adobe Illustrator 19.0.0, SVG Export Plug-In . SVG Version: 6.00 Build 0)  -->
<svg version="1.1" id="Capa_1" xmlns="http://www.w3.org/2000/svg" xmlns:xlink="http://www.w3.org/1999/xlink" x="0px" y="0px"
	 viewBox="0 0 512 512" style="enable-background:new 0 0 512 512;" xml:space="preserve">
<path style="fill:#D0F0FE;" d="M159.996,79H73.725c-4.143,0-7.5,3.358-7.5,7.5v202.617c0,27.92,22.715,50.635,50.636,50.635
	s50.636-22.715,50.636-50.635V86.5C167.496,82.358,164.139,79,159.996,79z"/>
<path style="fill:#A6D3E8;" d="M159.996,79h-21.271c2.1,0,3.802,3.358,3.802,7.5v202.617c0,27.92-11.514,50.635-25.667,50.635
	c27.921,0,50.636-22.715,50.636-50.635V86.5C167.496,82.358,164.139,79,159.996,79z"/>
<path style="fill:#E7C474;" d="M66.225,157.934v131.183c0,27.92,22.715,50.635,50.636,50.635s50.636-22.715,50.636-50.635V157.934
	H66.225z"/>
<path style="fill:#D99A4A;" d="M142.527,289.117c0,27.92-11.514,50.635-25.667,50.635c27.921,0,50.636-22.715,50.636-50.635V157.934
	h-24.969L142.527,289.117L142.527,289.117z"/>
<path style="fill:#D0F0FE;" d="M438.275,79h-86.271c-4.143,0-7.5,3.358-7.5,7.5v202.617c0,27.92,22.715,50.635,50.636,50.635
	c27.921,0,50.636-22.715,50.636-50.635V86.5C445.775,82.358,442.418,79,438.275,79z"/>
<path style="fill:#A6D3E8;" d="M438.275,79h-24.762c1.765,0,3.195,3.358,3.195,7.5v202.617c0,27.92-9.676,50.635-21.569,50.635
	c27.921,0,50.636-22.715,50.636-50.635V86.5C445.775,82.358,442.418,79,438.275,79z"/>
<path style="fill:#E36F91;" d="M344.504,166.5v122.617c0,27.92,22.715,50.635,50.636,50.635c27.921,0,50.636-22.715,50.636-50.635
	V166.5H344.504z"/>
<path style="fill:#B04663;" d="M416.708,289.117c0,27.92-9.676,50.635-21.569,50.635c27.921,0,50.636-22.715,50.636-50.635V166.5
	h-29.067L416.708,289.117L416.708,289.117z"/>
<path style="fill:#A6D3E8;" d="M173.292,94H60.429c-4.143,0-7.5-3.358-7.5-7.5s3.357-7.5,7.5-7.5h112.863c4.143,0,7.5,3.358,7.5,7.5
	S177.435,94,173.292,94z"/>
<circle style="fill:#D99A4A;" cx="106.56" cy="200.62" r="12.12"/>
<path style="fill:#D0F0FE;" d="M299.136,79h-86.271c-4.143,0-7.5,3.358-7.5,7.5v202.617c0,27.92,22.715,50.635,50.636,50.635
	s50.636-22.715,50.636-50.635V86.5C306.636,82.358,303.278,79,299.136,79z"/>
<path style="fill:#A6D3E8;" d="M299.136,79h-21.271c2.1,0,3.802,3.358,3.802,7.5v202.617c0,27.92-11.514,50.635-25.667,50.635
	c27.921,0,50.636-22.715,50.636-50.635V86.5C306.636,82.358,303.278,79,299.136,79z"/>
<path style="fill:#7EBFE7;" d="M205.364,208.953v80.164c0,27.92,22.715,50.635,50.636,50.635s50.636-22.715,50.636-50.635v-80.164
	H205.364z"/>
<path style="fill:#3E91D9;" d="M281.667,289.117c0,27.92-11.514,50.635-25.667,50.635c27.921,0,50.636-22.715,50.636-50.635v-80.164
	h-24.969V289.117z"/>
<path style="fill:#A6D3E8;" d="M312.432,94H199.568c-4.143,0-7.5-3.358-7.5-7.5s3.357-7.5,7.5-7.5h112.863
	c4.143,0,7.5,3.358,7.5,7.5S316.574,94,312.432,94z"/>
<circle style="fill:#3E91D9;" cx="243.87" cy="287.39" r="12.12"/>
<path style="fill:#A6D3E8;" d="M451.571,94H338.708c-4.143,0-7.5-3.358-7.5-7.5s3.357-7.5,7.5-7.5h112.863
	c4.143,0,7.5,3.358,7.5,7.5S455.714,94,451.571,94z"/>
<circle style="fill:#B04663;" cx="383.01" cy="236.95" r="12.12"/>
<path style="fill:#2B2F52;" d="M476.667,386.667H35.333c-4.143,0-7.5-3.358-7.5-7.5V113.834c0-4.142,3.357-7.5,7.5-7.5h441.334
	c4.143,0,7.5,3.358,7.5,7.5v265.333C484.167,383.309,480.81,386.667,476.667,386.667z M42.833,371.667h426.334V121.334H42.833
	V371.667z"/>
<path style="fill:#747693;" d="M481.333,371.667H30.667C13.757,371.667,0,385.424,0,402.333S13.757,433,30.667,433h450.666
	c16.91,0,30.667-13.757,30.667-30.667C512,385.423,498.243,371.667,481.333,371.667z"/>
<path style="fill:#545777;" d="M481.333,371.667h-27.58c14.84,0,26.913,13.757,26.913,30.667c0,16.91-12.072,30.666-26.913,30.666
	h27.58c16.91,0,30.667-13.757,30.667-30.667C512,385.423,498.243,371.667,481.333,371.667z"/>
<g>
</g>
<g>
</g>
<g>
</g>
<g>
</g>
<g>
</g>
<g>
</g>
<g>
</g>
<g>
</g>
<g>
</g>
<g>
</g>
<g>
</g>
<g>
</g>
<g>
</g>
<g>
</g>
<g>
</g>
</svg>
