<?xml version="1.0" encoding="iso-8859-1"?>
<!-- Generator: Adobe Illustrator 19.0.0, SVG Export Plug-In . SVG Version: 6.00 Build 0)  -->
<svg version="1.1" id="Capa_1" xmlns="http://www.w3.org/2000/svg" xmlns:xlink="http://www.w3.org/1999/xlink" x="0px" y="0px"
	 viewBox="0 0 512 512" style="enable-background:new 0 0 512 512;" xml:space="preserve">
<path style="fill:#E7E7F2;" d="M423.665,269.88V410c0,12.41-10.09,22.5-22.5,22.5h-84.65c-12.41,0-22.5-10.09-22.5-22.5
	s10.09-22.5,22.5-22.5h62.15V269.88c0-55.02-43.78-100.16-98.33-102.29c-1.22-0.05-2.45-0.08-3.69-0.08c-0.12,0-0.24,0-0.36-0.01
	h-19.36c-4.14,0-7.5-3.36-7.5-7.5v-30c0-4.14,3.36-7.5,7.5-7.5h19.74c1.23,0,2.45,0.02,3.67,0.06
	C359.715,124.72,423.665,190.07,423.665,269.88z"/>
<path style="fill:#BCBCCE;" d="M280.335,122.56v45.03c-1.22-0.05-2.45-0.08-3.69-0.08c-0.12,0-0.24,0-0.36-0.01h-11.86v-45h12.24
	C277.895,122.5,279.115,122.52,280.335,122.56z"/>
<g>
	<path style="fill:#7EBFE7;" d="M179.715,218.238h-26.38c-4.142,0-7.5,3.358-7.5,7.5V257c0,4.142,3.358,7.5,7.5,7.5h26.38
		c4.142,0,7.5-3.358,7.5-7.5v-31.262C187.215,221.596,183.857,218.238,179.715,218.238z"/>
	<path style="fill:#7EBFE7;" d="M241.335,218.238h-26.38c-4.142,0-7.5,3.358-7.5,7.5V257c0,4.142,3.358,7.5,7.5,7.5h26.38
		c4.142,0,7.5-3.358,7.5-7.5v-31.262C248.835,221.596,245.477,218.238,241.335,218.238z"/>
</g>
<path style="fill:#2B2F52;" d="M316.512,417.5h-64.558c-34.253,0-62.119-27.866-62.119-62.119V349c0-4.142,3.358-7.5,7.5-7.5
	s7.5,3.358,7.5,7.5v6.381c0,25.982,21.137,47.119,47.119,47.119h64.558c4.142,0,7.5,3.358,7.5,7.5S320.654,417.5,316.512,417.5z"/>
<path style="fill:#E7E7F2;" d="M230.634,0h-66.599c-4.142,0-7.5,3.358-7.5,7.5v82.166c0,4.142,3.358,7.5,7.5,7.5h66.599
	c4.142,0,7.5-3.358,7.5-7.5V7.5C238.134,3.358,234.776,0,230.634,0z"/>
<path style="fill:#BCBCCE;" d="M230.634,0h-25.698c2.706,0,4.899,3.358,4.899,7.5v82.166c0,4.142-2.193,7.5-4.899,7.5h25.698
	c4.142,0,7.5-3.358,7.5-7.5V7.5C238.134,3.358,234.776,0,230.634,0z"/>
<path style="fill:#747693;" d="M256.923,82.166H137.747c-4.142,0-7.5,3.358-7.5,7.5v136.072c0,4.142,3.358,7.5,7.5,7.5h119.177
	c4.142,0,7.5-3.358,7.5-7.5V89.666C264.423,85.524,261.065,82.166,256.923,82.166z"/>
<path style="fill:#545777;" d="M256.923,82.166h-30.81c4.142,0,7.5,3.358,7.5,7.5v136.072c0,4.142-3.358,7.5-7.5,7.5h30.81
	c4.142,0,7.5-3.358,7.5-7.5V89.666C264.423,85.524,261.065,82.166,256.923,82.166z"/>
<path style="fill:#E8C778;" d="M261.835,309.5h-129c-4.142,0-7.5,3.358-7.5,7.5v32c0,4.142,3.358,7.5,7.5,7.5h129
	c4.142,0,7.5-3.358,7.5-7.5v-32C269.335,312.858,265.977,309.5,261.835,309.5z"/>
<path style="fill:#D99A4A;" d="M261.835,309.5h-28c4.142,0,7.5,3.358,7.5,7.5v32c0,4.142-3.358,7.5-7.5,7.5h28
	c4.142,0,7.5-3.358,7.5-7.5v-32C269.335,312.858,265.977,309.5,261.835,309.5z"/>
<path style="fill:#7EBFE7;" d="M364.631,458.5c-2.544-16.408-4.449-28.69-8.479-54.685C353.16,383.553,335.703,368,314.609,368
	s-38.552,15.553-41.543,35.815c-4.031,25.995-5.935,38.277-8.479,54.685H364.631z"/>
<path style="fill:#3E91D9;" d="M356.151,403.815C353.16,383.553,335.703,368,314.609,368c12.114,0,22.139,15.553,23.857,35.815
	c2.315,25.995,3.408,38.277,4.869,54.685h21.296C362.087,442.092,360.182,429.81,356.151,403.815z"/>
<circle style="fill:#747693;" cx="314.61" cy="410" r="15"/>
<circle style="fill:#7EBFE7;" cx="197.34" cy="140.7" r="15"/>
<path style="fill:#BCBCCE;" d="M256.923,15H137.747c-4.142,0-7.5-3.358-7.5-7.5s3.358-7.5,7.5-7.5h119.177
	c4.142,0,7.5,3.358,7.5,7.5S261.065,15,256.923,15z"/>
<path style="fill:#747693;" d="M409.835,451h-314c-4.142,0-7.5,3.358-7.5,7.5v46c0,4.142,3.358,7.5,7.5,7.5h314
	c4.142,0,7.5-3.358,7.5-7.5v-46C417.335,454.358,413.977,451,409.835,451z"/>
<path style="fill:#545777;" d="M409.835,451h-30.333c4.142,0,7.5,3.358,7.5,7.5v46c0,4.142-3.358,7.5-7.5,7.5h30.333
	c4.142,0,7.5-3.358,7.5-7.5v-46C417.335,454.358,413.977,451,409.835,451z"/>
<g>
</g>
<g>
</g>
<g>
</g>
<g>
</g>
<g>
</g>
<g>
</g>
<g>
</g>
<g>
</g>
<g>
</g>
<g>
</g>
<g>
</g>
<g>
</g>
<g>
</g>
<g>
</g>
<g>
</g>
</svg>
