<svg xmlns="http://www.w3.org/2000/svg" id="Capa_1" enable-background="new 0 0 512 512" height="512" viewBox="0 0 512 512" width="512"><g><path d="m166.527 167.141c15.275 0 27.703-12.428 27.703-27.703s-12.428-27.703-27.703-27.703-27.703 12.428-27.703 27.703 12.428 27.703 27.703 27.703zm0-40.407c7.005 0 12.703 5.699 12.703 12.703s-5.698 12.703-12.703 12.703-12.703-5.699-12.703-12.703 5.699-12.703 12.703-12.703z" fill="#009688"/><path d="m415.244 449.757h-96.26v-19.573h62.568c13.971 0 25.337-11.366 25.337-25.337s-11.366-25.337-25.337-25.337h-26.958v-29.664h28.275c13.971 0 25.337-11.366 25.337-25.336s-11.366-25.337-25.337-25.337h-71.551c-13.971 0-25.337 11.366-25.337 25.337s11.366 25.336 25.337 25.336h28.275v29.664h-26.97c-10.24-20.958-31.771-35.431-56.625-35.431s-46.385 14.473-56.624 35.431h-44.764c-.08 0-.145-.065-.145-.144v-97.126c0-4.142-3.357-7.5-7.5-7.5s-7.5 3.358-7.5 7.5v97.126c0 8.351 6.794 15.144 15.145 15.144h39.665c-.824 4.058-1.26 8.256-1.26 12.554v8.12h-38.405c-19.75 0-35.817-16.068-35.817-35.818v-161.415c0-13.079 2.046-25.834 6.075-38.053 5.081 5.23 11.134 9.505 17.866 12.54-2.161 8.297-3.268 16.855-3.268 25.512v31.604c0 4.142 3.357 7.5 7.5 7.5s7.5-3.358 7.5-7.5v-31.604c0-7.185.897-14.284 2.641-21.172 3.068.502 6.212.775 9.42.775 32.045 0 58.116-26.071 58.116-58.116 0-2.005-.102-3.987-.302-5.94 5.278-.997 10.665-1.502 16.08-1.502h63.561v37.053c0 10.632 7.414 19.558 17.342 21.896v19.79c0 14.21 11.561 25.771 25.77 25.771 14.21 0 25.771-11.561 25.771-25.771v-19.79c9.927-2.339 17.342-11.265 17.342-21.896v-42.123c0-4.142-3.357-7.5-7.5-7.5-4.142 0-7.5 3.358-7.5 7.5v42.123c0 4.136-3.364 7.5-7.5 7.5h-41.224c-4.136 0-7.5-3.364-7.5-7.5v-89.97c0-4.136 3.364-7.5 7.5-7.5h41.224c4.136 0 7.5 3.364 7.5 7.5v15.161c0 4.142 3.358 7.5 7.5 7.5 4.143 0 7.5-3.358 7.5-7.5v-15.161c0-10.632-7.414-19.558-17.342-21.896v-14.536c9.873-1.956 17.342-10.677 17.342-21.115 0-11.872-9.659-21.531-21.531-21.531h-43.161c-11.872 0-21.531 9.659-21.531 21.531 0 10.439 7.469 19.159 17.342 21.115v14.536c-9.927 2.339-17.342 11.265-17.342 21.896v2.244h-63.561c-15.488 0-30.663 2.575-45.142 7.643-8.486-4.853-18.297-7.643-28.753-7.643-32.045 0-58.115 26.071-58.115 58.116 0 9.209 2.162 17.919 5.991 25.664-7.035 16.748-10.61 34.52-10.61 52.85v161.415c0 28.021 22.797 50.818 50.817 50.818h38.405v19.573h-96.26c-24.18 0-43.851 19.671-43.851 43.851v.892c0 9.649 7.851 17.5 17.5 17.5h249.415c4.143 0 7.5-3.358 7.5-7.5s-3.357-7.5-7.5-7.5h-249.415c-1.379 0-2.5-1.122-2.5-2.5v-.892c0-15.909 12.942-28.851 28.851-28.851h318.488c15.908 0 28.851 12.942 28.851 28.851v.892c0 1.378-1.121 2.5-2.5 2.5h-89.088c-4.143 0-7.5 3.358-7.5 7.5s3.357 7.5 7.5 7.5h89.088c9.649 0 17.5-7.851 17.5-17.5v-.892c0-24.181-19.671-43.852-43.851-43.852zm-114.262-125.247c0-5.7 4.637-10.337 10.337-10.337h71.551c5.7 0 10.337 4.637 10.337 10.337s-4.637 10.336-10.337 10.336h-71.551c-5.7 0-10.337-4.636-10.337-10.336zm46.113-103.005c-5.938 0-10.77-4.832-10.77-10.771v-19.187h21.54v19.187c0 5.94-4.832 10.771-10.77 10.771zm10.77-178.443v13.516h-21.54v-13.516zm-38.882-21.531c0-3.601 2.93-6.531 6.531-6.531h43.161c3.602 0 6.531 2.93 6.531 6.531s-2.93 6.531-6.531 6.531h-43.161c-3.601 0-6.531-2.93-6.531-6.531zm-15 74.791v20.673h-63.561c-6.581 0-13.129.643-19.54 1.9-2.625-6.921-6.526-13.219-11.43-18.592 10.056-2.641 20.429-3.981 30.97-3.981zm-137.456 0c23.775 0 43.116 19.342 43.116 43.116s-19.342 43.116-43.116 43.116c-23.773 0-43.115-19.342-43.115-43.116s19.342-43.116 43.115-43.116zm215.026 298.188c5.7 0 10.337 4.637 10.337 10.337s-4.637 10.337-10.337 10.337h-62.568v-8.12c0-4.298-.436-8.496-1.26-12.554zm-173.537 12.555c0-26.459 21.525-47.985 47.984-47.985s47.984 21.526 47.984 47.985v42.692h-95.969v-42.692z" fill="#009688"/><path d="m256 376.715c-15.275 0-27.703 12.428-27.703 27.703s12.428 27.703 27.703 27.703 27.703-12.428 27.703-27.703-12.428-27.703-27.703-27.703zm0 40.407c-7.005 0-12.703-5.699-12.703-12.703s5.698-12.703 12.703-12.703 12.703 5.699 12.703 12.703-5.698 12.703-12.703 12.703z" fill="#009688"/></g></svg>