<svg xmlns="http://www.w3.org/2000/svg" id="Capa_1" enable-background="new 0 0 512 512" height="512" viewBox="0 0 512 512" width="512"><g><path d="m213.028 253.881h15.682c9.9 0 17.955-8.055 17.955-17.955v-12.463c0-1.629 1.325-2.954 2.954-2.954h12.463c9.9 0 17.955-8.054 17.955-17.954v-15.683c0-9.9-8.054-17.954-17.955-17.954h-12.463c-1.629 0-2.954-1.325-2.954-2.954v-12.463c0-9.9-8.054-17.955-17.955-17.955h-15.682c-9.9 0-17.955 8.055-17.955 17.955v12.463c0 1.629-1.325 2.954-2.954 2.954h-12.463c-9.9 0-17.955 8.054-17.955 17.954v15.683c0 9.9 8.054 17.954 17.955 17.954h12.463c1.629 0 2.954 1.325 2.954 2.954v12.463c0 9.9 8.054 17.955 17.955 17.955zm-20.909-48.372h-12.463c-1.629 0-2.955-1.325-2.955-2.954v-15.683c0-1.629 1.325-2.954 2.955-2.954h12.463c9.9 0 17.954-8.054 17.954-17.954v-12.463c0-1.63 1.325-2.955 2.955-2.955h15.682c1.629 0 2.955 1.325 2.955 2.955v12.463c0 9.9 8.054 17.954 17.954 17.954h12.463c1.629 0 2.955 1.325 2.955 2.954v15.683c0 1.629-1.325 2.954-2.955 2.954h-12.463c-9.9 0-17.954 8.054-17.954 17.954v12.463c0 1.63-1.325 2.955-2.955 2.955h-15.682c-1.629 0-2.955-1.325-2.955-2.955v-12.463c0-9.901-8.054-17.954-17.954-17.954z" fill="#009688"/><path d="m266.586 31.627h-91.436c-4.142 0-7.5 3.357-7.5 7.5s3.358 7.5 7.5 7.5h91.436c4.142 0 7.5-3.357 7.5-7.5s-3.358-7.5-7.5-7.5z" fill="#009688"/><path d="m438.62 390.703c4.142 0 7.5-3.357 7.5-7.5v-17.841c0-13.058-10.624-23.681-23.681-23.681-2.638 0-5.244.438-7.755 1.306-1.83.634-3.544 1.478-5.121 2.5-4.277-6.182-11.417-10.238-19.486-10.238-4.743 0-9.164 1.401-12.872 3.811-.42-.607-.874-1.186-1.347-1.75v-299.81c0-20.678-16.822-37.5-37.5-37.5h-234.978c-20.678 0-37.5 16.822-37.5 37.5v76.651c0 4.143 3.358 7.5 7.5 7.5s7.5-3.357 7.5-7.5v-76.651c0-12.406 10.093-22.5 22.5-22.5h234.977c12.407 0 22.5 10.094 22.5 22.5v291.53c-1.029-.137-2.077-.212-3.143-.212-3.063 0-5.992.585-8.681 1.647v-45.137c0-10-6.234-18.567-15.018-22.033v-162.052c0-15.163-12.336-27.5-27.5-27.5h-23.585c-4.142 0-7.5 3.357-7.5 7.5 0 4.142 3.358 7.5 7.5 7.5h23.585c6.893 0 12.5 5.607 12.5 12.5v161.271c-9.989 2.779-17.344 11.951-17.344 22.814v15.355h-166.448c-6.893 0-12.5-5.607-12.5-12.5v-186.94c0-6.893 5.607-12.5 12.5-12.5h115.02c4.142 0 7.5-3.358 7.5-7.5 0-4.143-3.358-7.5-7.5-7.5h-115.02c-15.164 0-27.5 12.337-27.5 27.5v186.94c0 15.163 12.336 27.5 27.5 27.5h166.448v32.117h-220.791v-200.962c0-4.143-3.358-7.5-7.5-7.5s-7.5 3.357-7.5 7.5v266.954c0 20.678 16.822 37.5 37.5 37.5h174.294c1.686 2.158 3.758 4.046 6.174 5.54l29.152 18.025v23.342c0 7.609 6.191 13.801 13.801 13.801h80.366c7.609 0 13.8-6.191 13.8-13.801v-20.424l13.461-9.464c7.32-5.147 11.691-13.562 11.691-22.511v-29.912c0-4.143-3.358-7.5-7.5-7.5s-7.5 3.357-7.5 7.5v29.912c0 4.07-1.988 7.899-5.318 10.24l-16.647 11.703c-1.997 1.404-3.187 3.693-3.187 6.136v23.121h-77.967v-26.323c0-2.599-1.345-5.013-3.556-6.379l-32.707-20.224c-2.908-1.798-4.47-5.146-3.979-8.529l7.272-50.102c.124-.854.743-1.548 1.577-1.768l5.064-1.336v36.005c0 4.142 3.358 7.5 7.5 7.5s7.5-3.358 7.5-7.5v-43.742c0-.354-.033-.699-.08-1.04.041-.317.08-.634.08-.96v-87.273c0-4.787 3.895-8.682 8.681-8.682 4.787 0 8.681 3.894 8.681 8.682v67.171c0 4.143 3.358 7.5 7.5 7.5s7.5-3.357 7.5-7.5c0-4.787 3.895-8.682 8.681-8.682s8.681 3.895 8.681 8.682v6.432c0 4.143 3.358 7.5 7.5 7.5s7.5-3.357 7.5-7.5c0-4.787 3.895-8.682 8.681-8.682s8.681 3.895 8.681 8.682v6.432c0 4.143 3.358 7.5 7.5 7.5s7.5-3.357 7.5-7.5c0-3.695 2.347-6.992 5.831-8.2.911-.314 1.897-.48 2.851-.48 4.787 0 8.681 3.895 8.681 8.681v17.841c0 4.14 3.358 7.497 7.5 7.497zm-145.841-21.532c-6.661 1.759-11.604 7.3-12.594 14.117l-7.271 50.103c-.141.97-.206 1.938-.226 2.901h-169.308c-12.407 0-22.5-10.094-22.5-22.5v-50.992h220.79v4.024z" fill="#009688"/><path d="m237.802 375.185h-33.866c-13.433 0-24.361 10.929-24.361 24.361s10.928 24.361 24.361 24.361h33.866c13.433 0 24.361-10.929 24.361-24.361s-10.928-24.361-24.361-24.361zm0 33.722h-33.866c-5.162 0-9.361-4.199-9.361-9.361s4.2-9.361 9.361-9.361h33.866c5.162 0 9.361 4.199 9.361 9.361s-4.2 9.361-9.361 9.361z" fill="#009688"/></g></svg>