<?xml version="1.0" encoding="iso-8859-1"?>
<!-- Generator: Adobe Illustrator 19.0.0, SVG Export Plug-In . SVG Version: 6.00 Build 0)  -->
<svg version="1.1" id="Capa_1" xmlns="http://www.w3.org/2000/svg" xmlns:xlink="http://www.w3.org/1999/xlink" x="0px" y="0px"
	 viewBox="0 0 512.005 512.005" style="enable-background:new 0 0 512.005 512.005;" xml:space="preserve">
<path style="fill:#E7E7F2;" d="M319.319,11.445H26.618c-4.142,0-7.5,3.358-7.5,7.5v201.255c0,4.142,3.358,7.5,7.5,7.5h292.701
	c4.142,0,7.5-3.358,7.5-7.5V18.945C326.819,14.803,323.461,11.445,319.319,11.445z"/>
<path style="fill:#BCBCCE;" d="M319.319,11.445h-32.474c3.694,0,6.689,3.358,6.689,7.5v201.255c0,4.142-2.995,7.5-6.689,7.5h32.474
	c4.142,0,7.5-3.358,7.5-7.5V18.945C326.819,14.803,323.461,11.445,319.319,11.445z"/>
<path style="fill:#7EBFE7;" d="M338.438,163.732h-87.99c-3.065,0-5.823,1.866-6.962,4.711c-9.352,23.351-38.35,39.659-70.517,39.659
	s-61.165-16.308-70.516-39.659c-1.14-2.846-3.897-4.711-6.962-4.711H7.5c-4.142,0-7.5,3.358-7.5,7.5V493.06
	c0,4.142,3.358,7.5,7.5,7.5h330.938c4.142,0,7.5-3.358,7.5-7.5V171.232C345.938,167.09,342.58,163.732,338.438,163.732z"/>
<path style="fill:#3E91D9;" d="M338.438,163.732H306.38c3.34,0,6.047,3.358,6.047,7.5V493.06c0,4.142-2.707,7.5-6.047,7.5h32.057
	c4.142,0,7.5-3.358,7.5-7.5V171.232C345.938,167.09,342.58,163.732,338.438,163.732z"/>
<circle style="fill:#FFFFFF;" cx="172.97" cy="350.973" r="81.24"/>
<path style="fill:#E36F91;" d="M186.08,337.867V313.16c0-2.725-2.209-4.935-4.935-4.935h-16.353c-2.725,0-4.935,2.209-4.935,4.935
	v24.707H135.15c-2.725,0-4.935,2.209-4.935,4.935v16.352c0,2.725,2.209,4.935,4.935,4.935h24.707v24.707
	c0,2.725,2.209,4.935,4.935,4.935h16.353c2.725,0,4.935-2.209,4.935-4.935v-24.707h24.707c2.725,0,4.935-2.209,4.935-4.935v-16.352
	c0-2.725-2.209-4.935-4.935-4.935H186.08z"/>
<path style="fill:#50D399;" d="M75.648,75.462h54.317c12.836,0,23.245,10.41,23.245,23.245s-10.41,23.245-23.245,23.245H75.648
	c-12.836,0-23.245-10.41-23.245-23.245c0-6.423,2.608-12.226,6.808-16.437C63.422,78.069,69.225,75.462,75.648,75.462z"/>
<path style="fill:#E36F91;" d="M102.807,75.462h27.158c12.836,0,23.245,10.41,23.245,23.245s-10.41,23.245-23.245,23.245h-27.158
	C102.807,121.952,102.807,75.462,102.807,75.462z"/>
<path style="fill:#50D399;" d="M215.973,75.462h54.317c12.836,0,23.245,10.41,23.245,23.245s-10.41,23.245-23.245,23.245h-54.317
	c-12.836,0-23.245-10.41-23.245-23.245c0-6.423,2.608-12.226,6.808-16.437C203.746,78.069,209.549,75.462,215.973,75.462z"/>
<path style="fill:#E36F91;" d="M243.131,75.462h27.158c12.836,0,23.245,10.41,23.245,23.245s-10.41,23.245-23.245,23.245h-27.158
	V75.462z"/>
<path style="fill:#E7C474;" d="M472.543,232.385H319.927c-4.142,0-7.5,3.358-7.5,7.5v55.73c0,4.142,3.358,7.5,7.5,7.5h152.616
	c4.142,0,7.5-3.358,7.5-7.5v-55.73C480.043,235.743,476.685,232.385,472.543,232.385z"/>
<g>
	<path style="fill:#D99A4A;" d="M472.543,232.385h-26.251c3.463,0,6.27,3.358,6.27,7.5v55.73c0,4.142-2.807,7.5-6.27,7.5h26.251
		c4.142,0,7.5-3.358,7.5-7.5v-55.73C480.043,235.743,476.685,232.385,472.543,232.385z"/>
	<rect x="347.93" y="232.383" style="fill:#D99A4A;" width="15" height="70.73"/>
	<rect x="388.74" y="232.383" style="fill:#D99A4A;" width="15" height="70.73"/>
	<rect x="429.54" y="232.383" style="fill:#D99A4A;" width="15" height="70.73"/>
</g>
<path style="fill:#E36F91;" d="M483.1,288.117H309.371c-15.936,0-28.9,12.964-28.9,28.9V471.66c0,15.935,12.965,28.9,28.9,28.9
	H483.1c15.935,0,28.9-12.965,28.9-28.9V317.017C512,301.081,499.036,288.117,483.1,288.117z"/>
<path style="fill:#B04663;" d="M483.1,288.117h-21.629c11.968,0,21.704,12.964,21.704,28.9V471.66c0,15.935-9.736,28.9-21.704,28.9
	H483.1c15.935,0,28.9-12.965,28.9-28.9V317.017C512,301.081,499.036,288.117,483.1,288.117z"/>
<rect x="400.63" y="339.063" style="fill:#E7E7F2;" width="111.37" height="110.55"/>
<rect x="483.18" y="339.063" style="fill:#BCBCCE;" width="28.825" height="110.55"/>
<path style="fill:#2B2F52;" d="M437.04,408.313c-4.14,0-7.5,3.36-7.5,7.5c0,4.15,3.36,7.5,7.5,7.5H512v-15H437.04z M437.04,365.362
	c-4.14,0-7.5,3.35-7.5,7.5c0,4.14,3.36,7.5,7.5,7.5H512v-15H437.04z"/>
<g>
</g>
<g>
</g>
<g>
</g>
<g>
</g>
<g>
</g>
<g>
</g>
<g>
</g>
<g>
</g>
<g>
</g>
<g>
</g>
<g>
</g>
<g>
</g>
<g>
</g>
<g>
</g>
<g>
</g>
</svg>
