<?xml version="1.0" encoding="iso-8859-1"?>
<!-- Generator: Adobe Illustrator 19.0.0, SVG Export Plug-In . SVG Version: 6.00 Build 0)  -->
<svg version="1.1" id="Capa_1" xmlns="http://www.w3.org/2000/svg" xmlns:xlink="http://www.w3.org/1999/xlink" x="0px" y="0px"
	 viewBox="0 0 511.998 511.998" style="enable-background:new 0 0 511.998 511.998;" xml:space="preserve">
<path style="fill:#50D399;" d="M504.467,85.453H303.864c-20.393,0-38.247,11.077-47.864,27.529
	c-9.617-16.452-27.471-27.529-47.864-27.529H7.533C3.372,85.453,0,88.825,0,92.986v305.547c0,4.161,3.372,7.533,7.533,7.533h170.195
	c19.195,0,33.44,4.289,41.195,12.403c6.916,7.237,6.636,15.259,6.626,15.506c-0.147,2.085,0.578,4.138,2.003,5.667
	c1.425,1.53,3.421,2.398,5.512,2.398h45.871c2.051,0,4.013-0.836,5.433-2.316c1.421-1.479,2.177-3.473,2.094-5.523
	c-0.004-0.078-0.121-8.053,6.921-15.386c8.01-8.341,22.526-12.75,41.98-12.75h169.102c4.161,0,7.533-3.373,7.533-7.533V92.986
	C512,88.825,508.628,85.453,504.467,85.453z"/>
<path style="fill:#32A873;" d="M491.711,363.552V85.453H311.623c-27.206,0-49.261,21.43-49.261,47.864
	c0-26.435-22.055-47.864-49.261-47.864H38.035v278.545c0,4.172,3.382,7.554,7.554,7.554h146.105c31.333,0,43.046,11.34,47.408,20.43
	c0.878,1.82,1.458,3.55,1.842,5.079c0.897,3.582,4.184,6.05,7.877,6.05h13.541v0.002h13.845c3.582,0,6.761-2.368,7.699-5.825
	c2.475-9.118,12.189-25.733,50.109-25.733h149.692C488.127,371.555,491.711,367.972,491.711,363.552z"/>
<path style="fill:#E7E7F2;" d="M256,111.944v268.258h-13.533c-3.45,0-6.429-2.384-7.205-5.745c-0.37-1.603-0.952-3.442-1.862-5.384
	c-4.239-9.09-15.619-20.43-46.064-20.43H45.589c-4.172,0-7.554-3.382-7.554-7.554V77.512c0-4.172,3.382-7.554,7.554-7.554h168.425
	c6.991,0,13.59,1.708,19.386,4.741c2.702,1.406,5.223,3.094,7.533,5.032C250.144,87.425,256,99.007,256,111.944z"/>
<path style="fill:#BCBCCE;" d="M256,111.944v268.258h-12.991c-3.68,0-6.949-2.474-7.82-6.05c-0.372-1.53-0.937-3.259-1.79-5.08
	V74.699c2.702,1.406,5.223,3.094,7.533,5.032C250.144,87.425,256,99.007,256,111.944z"/>
<circle style="fill:#FFFFFF;" cx="147.02" cy="164.229" r="54.24"/>
<path style="fill:#E7E7F2;" d="M473.965,77.961v262.682c0,4.42-3.583,8.004-8.004,8.004h-140.34
	c-36.768,0-46.243,16.546-48.673,25.677c-0.927,3.483-4.111,5.881-7.715,5.881H256v-31.558v-236.7
	c0-23.19,18.799-41.989,41.989-41.989h167.973C470.382,69.957,473.965,73.54,473.965,77.961z"/>
<path style="fill:#E36F91;" d="M172.266,156.692h-17.715v-17.715c0-4.16-3.372-7.533-7.533-7.533c-4.161,0-7.533,3.373-7.533,7.533
	v17.715H121.77c-4.161,0-7.533,3.373-7.533,7.533c0,4.161,3.372,7.533,7.533,7.533h17.715v17.715c0,4.161,3.372,7.533,7.533,7.533
	c4.161,0,7.533-3.373,7.533-7.533v-17.714h17.715c4.161,0,7.533-3.373,7.533-7.533C179.799,160.065,176.427,156.692,172.266,156.692
	z"/>
<g>
	<path style="fill:#2B2F52;" d="M207.033,258.955H87.002c-4.161,0-7.533-3.373-7.533-7.533s3.372-7.533,7.533-7.533h120.032
		c4.161,0,7.533,3.373,7.533,7.533C214.566,255.583,211.194,258.955,207.033,258.955z"/>
	<path style="fill:#2B2F52;" d="M207.033,298.129H87.002c-4.161,0-7.533-3.373-7.533-7.533s3.372-7.533,7.533-7.533h120.032
		c4.161,0,7.533,3.373,7.533,7.533C214.566,294.756,211.194,298.129,207.033,298.129z"/>
	<path style="fill:#2B2F52;" d="M414.846,298.129h-99.727c-4.161,0-7.533-3.373-7.533-7.533s3.372-7.533,7.533-7.533h99.727
		c4.161,0,7.533,3.373,7.533,7.533C422.379,294.756,419.007,298.129,414.846,298.129z"/>
</g>
<path style="fill:#FFD2C0;" d="M391.267,148.281v21.356c0,7.212-2.9,13.741-7.598,18.489l-0.099,0.098
	c-4.756,4.756-11.327,7.696-18.587,7.696c-7.31,0-13.914-2.982-18.686-7.795c-4.698-4.748-7.598-11.277-7.598-18.489V148.28
	c0-14.513,11.77-26.284,26.284-26.284S391.267,133.768,391.267,148.281z"/>
<path style="fill:#7EBFE7;" d="M403.152,221.408v30.908h-76.338v-30.908c0-14.292,7.852-26.744,19.483-33.282
	c4.772,4.813,11.376,7.795,18.686,7.795c7.261,0,13.832-2.941,18.587-7.696l0.099-0.098c3.056,1.709,5.848,3.836,8.304,6.292
	C398.881,201.326,403.152,210.87,403.152,221.408z"/>
<g>
</g>
<g>
</g>
<g>
</g>
<g>
</g>
<g>
</g>
<g>
</g>
<g>
</g>
<g>
</g>
<g>
</g>
<g>
</g>
<g>
</g>
<g>
</g>
<g>
</g>
<g>
</g>
<g>
</g>
</svg>
