<svg id="Capa_1" enable-background="new 0 0 512 512" height="512" viewBox="0 0 512 512" width="512" xmlns="http://www.w3.org/2000/svg"><g><path d="m383.727 0h-255.454c-34.693 0-62.919 27.462-62.919 61.217v58.52c0 4.142 3.358 7.5 7.5 7.5s7.5-3.358 7.5-7.5v-58.52c0-25.484 21.497-46.217 47.919-46.217h255.453c26.423 0 47.919 20.733 47.919 46.217v131.424c0 4.142 3.358 7.5 7.5 7.5s7.5-3.358 7.5-7.5v-131.424c.001-33.755-28.225-61.217-62.918-61.217z"/><path d="m439.146 217.828c-4.142 0-7.5 3.358-7.5 7.5v225.455c0 25.484-21.497 46.217-47.919 46.217h-255.454c-26.423 0-47.919-20.733-47.919-46.217v-298.36c0-4.142-3.358-7.5-7.5-7.5s-7.5 3.358-7.5 7.5v298.36c0 33.755 28.226 61.217 62.919 61.217h255.453c34.694 0 62.919-27.462 62.919-61.217v-225.455c.001-4.142-3.357-7.5-7.499-7.5z"/><path d="m412.913 61.217c0-15.726-13.093-28.52-29.186-28.52h-255.454c-16.093 0-29.186 12.794-29.186 28.52v389.565c0 15.726 13.093 28.52 29.186 28.52h88.837c4.142 0 7.5-3.358 7.5-7.5s-3.358-7.5-7.5-7.5h-88.837c-7.822 0-14.186-6.065-14.186-13.52v-389.565c0-7.455 6.364-13.52 14.186-13.52h255.453c7.822 0 14.186 6.065 14.186 13.52v228.763l-28.635-28.635c-5.872-5.872-13.679-9.106-21.984-9.106s-16.112 3.234-21.984 9.106c-3.066 3.066-5.405 6.663-6.948 10.58h-24.651c-17.143 0-31.09 13.947-31.09 31.09s13.947 31.09 31.09 31.09h60.392l10.58 10.58c6.061 6.061 14.022 9.091 21.984 9.091 3.82 0 7.638-.705 11.248-2.101v99.107c0 7.455-6.364 13.52-14.186 13.52h-133.931c-4.142 0-7.5 3.358-7.5 7.5s3.358 7.5 7.5 7.5h133.929c16.093 0 29.186-12.794 29.186-28.52v-111.008c0-.127-.013-.251-.019-.377 3.16-4.943 4.861-10.687 4.861-16.696 0-6.008-1.701-11.751-4.86-16.694.006-.118.018-.234.018-.354v-244.436zm-76.997 210.735c6.273-6.273 16.482-6.273 22.755 0l14.383 14.383-22.755 22.755-14.383-14.383c-3.039-3.039-4.712-7.079-4.712-11.377s1.673-8.339 4.712-11.378zm-42.206 47.153c-8.872 0-16.09-7.218-16.09-16.09s7.218-16.09 16.09-16.09h22.706c.795 6.943 3.878 13.373 8.893 18.388l13.792 13.792zm81.578 14.973-14.383-14.383 22.755-22.755 14.382 14.382c6.273 6.273 6.273 16.481 0 22.755-6.272 6.275-16.48 6.276-22.754.001z"/><path d="m349.39 428.135c17.143 0 31.09-13.947 31.09-31.09s-13.947-31.09-31.09-31.09h-55.68c-17.143 0-31.09 13.947-31.09 31.09s13.947 31.09 31.09 31.09zm-71.77-31.09c0-8.872 7.218-16.09 16.09-16.09h55.68c8.872 0 16.09 7.218 16.09 16.09s-7.218 16.09-16.09 16.09h-55.68c-8.872 0-16.09-7.218-16.09-16.09z"/><path d="m293.71 146.045h55.68c17.143 0 31.09-13.947 31.09-31.09s-13.947-31.09-31.09-31.09h-55.68c-17.143 0-31.09 13.947-31.09 31.09s13.947 31.09 31.09 31.09zm71.77-31.09c0 8.872-7.218 16.09-16.09 16.09h-20.34v-32.18h20.34c8.872 0 16.09 7.218 16.09 16.09zm-71.77-16.09h20.34v32.18h-20.34c-8.872 0-16.09-7.218-16.09-16.09s7.218-16.09 16.09-16.09z"/><path d="m162.61 146.045h55.68c17.143 0 31.09-13.947 31.09-31.09s-13.947-31.09-31.09-31.09h-55.68c-17.143 0-31.09 13.947-31.09 31.09s13.947 31.09 31.09 31.09zm71.77-31.09c0 8.872-7.218 16.09-16.09 16.09h-20.34v-32.18h20.34c8.872 0 16.09 7.218 16.09 16.09zm-71.77-16.09h20.34v32.18h-20.34c-8.872 0-16.09-7.218-16.09-16.09s7.218-16.09 16.09-16.09z"/><path d="m162.61 240.075h55.68c17.143 0 31.09-13.947 31.09-31.09s-13.947-31.09-31.09-31.09h-55.68c-17.143 0-31.09 13.947-31.09 31.09s13.947 31.09 31.09 31.09zm71.77-31.09c0 8.872-7.218 16.09-16.09 16.09h-20.34v-32.18h20.34c8.872 0 16.09 7.218 16.09 16.09zm-71.77-16.09h20.34v32.18h-20.34c-8.872 0-16.09-7.218-16.09-16.09s7.218-16.09 16.09-16.09z"/><path d="m293.71 240.075h55.68c17.143 0 31.09-13.947 31.09-31.09s-13.947-31.09-31.09-31.09h-55.68c-17.143 0-31.09 13.947-31.09 31.09s13.947 31.09 31.09 31.09zm71.77-31.09c0 8.872-7.218 16.09-16.09 16.09h-20.34v-32.18h20.34c8.872 0 16.09 7.218 16.09 16.09zm-71.77-16.09h20.34v32.18h-20.34c-8.872 0-16.09-7.218-16.09-16.09s7.218-16.09 16.09-16.09z"/><path d="m162.61 334.105h55.68c17.143 0 31.09-13.947 31.09-31.09s-13.947-31.09-31.09-31.09h-55.68c-17.143 0-31.09 13.947-31.09 31.09s13.947 31.09 31.09 31.09zm71.77-31.09c0 8.872-7.218 16.09-16.09 16.09h-20.34v-32.18h20.34c8.872 0 16.09 7.218 16.09 16.09zm-71.77-16.09h20.34v32.18h-20.34c-8.872 0-16.09-7.218-16.09-16.09s7.218-16.09 16.09-16.09z"/><path d="m162.61 428.135h55.68c17.143 0 31.09-13.947 31.09-31.09s-13.947-31.09-31.09-31.09h-55.68c-17.143 0-31.09 13.947-31.09 31.09s13.947 31.09 31.09 31.09zm71.77-31.09c0 8.872-7.218 16.09-16.09 16.09h-20.34v-32.18h20.34c8.872 0 16.09 7.218 16.09 16.09zm-71.77-16.09h20.34v32.18h-20.34c-8.872 0-16.09-7.218-16.09-16.09s7.218-16.09 16.09-16.09z"/></g></svg>